<?xml version="1.0" encoding="UTF-8"?>
<svg width="636px" height="155px" viewBox="0 0 636 155" version="1.1" xmlns="http://www.w3.org/2000/svg" xmlns:xlink="http://www.w3.org/1999/xlink">
    <title>DemoKit</title>
    <defs></defs>
    <g id="Page-1" stroke="none" stroke-width="1" fill="none" fill-rule="evenodd">
        <g id="DemoKit">
            <path d="M63.3452038,5.07602964 C68.1259603,2.31585857 75.881157,2.31820196 80.6578547,5.07602964 L130.346733,33.7639169 C135.12749,36.524088 139.003058,43.2414571 139.003058,48.7571124 L139.003058,106.132887 C139.003058,111.653229 135.123431,118.368255 130.346733,121.126082 L80.6578547,149.81397 C75.8770982,152.574141 68.1219014,152.571797 63.3452038,149.81397 L13.6563255,121.126082 C8.87556892,118.365911 5,111.648542 5,106.132887 L5,48.7571124 C5,43.2367703 8.8796278,36.5217446 13.6563255,33.7639169 L63.3452038,5.07602964 Z M66.8029458,12.3234409 C69.6731996,10.6662991 74.3310422,10.668748 77.1970542,12.3234409 L125.802946,40.3860655 C128.6732,42.0432073 131,46.0782417 131,49.3876274 L131,105.512877 C131,108.82716 128.668958,112.859746 125.802946,114.514439 L77.1970542,142.577063 C74.3268004,144.234205 69.6689578,144.231756 66.8029458,142.577063 L18.1970542,114.514439 C15.3268004,112.857297 13,108.822262 13,105.512877 L13,49.3876274 C13,46.0733438 15.3310422,42.0407583 18.1970542,40.3860655 L66.8029458,12.3234409 Z" id="Combined-Shape" fill="#09BADE"></path>
            <path d="M73.8323446,53.1252617 C76.5377218,48.3055294 80.9224527,48.3027641 83.6293822,53.1252617 L107.832345,96.2437583 C110.537722,101.063491 108.256053,104.970656 102.733767,104.970656 L54.7279595,104.970656 C49.2067158,104.970656 46.9224527,101.066256 49.6293822,96.2437583 L73.8323446,53.1252617 Z" id="Polygon-2" fill="#09BADE" transform="translate(78.730615, 77.240040) rotate(-270.000000) translate(-78.730615, -77.240040) "></path>
            <path d="M188,36.0002415 L216,36.0002415 C216,36.0002415 248.5,35.5002415 248.5,80.0002415 C248.5,123.000242 216,123.000242 216,123.000242 L188,123.000242 L188,36.0002415 Z M199,44.5002415 L216,44.5002415 C216,44.5002415 237.5,45.5002415 237.5,81.0002415 C237.5,114.500242 216,115.000242 216,115.000242 L199,115.000242 L199,44.5002415 Z" id="D" fill="#6DCBDE"></path>
            <path d="M268.504444,91.5 L308.504444,91.5 L308.504444,85.5 C308.504444,81.75 308.004444,56 284.004444,56 C260.504446,56 257.004444,81 257.004444,88 C257.004444,90.5 256.004444,123 284.004444,123 C299.004444,123 306.504444,115 306.504444,115 C304.504444,112 305.004444,112 303.004444,109 C296.004444,114 292.504444,114.5 287.004444,114.5 C280.004444,114.5 268.504444,113 268.504444,91.5 Z M268.504444,83.5 C268.504444,83.5 267.504444,63.5 283.004444,63.5 C298.504444,63.5 297.504444,83.5 297.504444,83.5 L268.504444,83.5 Z" id="Combined-Shape" fill="#6DCBDE"></path>
            <path d="M330.5,75.5959213 C334.071812,72.3281133 341.65899,66 346.851607,66 C353.851607,66 355.5,71.5 355.5,71.5 L355.5,122.5 L365,122.5 L365,76.5275304 C367.922293,73.753394 376.603894,66 382.351607,66 C389.351607,66 391,71.5 391,71.5 L391,122.5 L400.5,122.5 L400.5,71 C400.5,66.5 394,57 385,57 C377.102963,57 366.896178,66.2389916 364.51307,68.5034952 C362.846449,63.6921602 357.053772,57 349.5,57 C342.698109,57 334.182673,63.8541804 330.428885,67.2022331 C330.021299,60.7340777 328,57.5 328,57.5 L319,59.5 C319,59.5 321.5,67 321.5,70 C321.5,73 321,122.5 321,122.5 L330.5,122.5 L330.5,75.5959213 L330.5,75.5959213 Z" id="Combined-Shape" fill="#6DCBDE"></path>
            <path d="M411,88.5 C411,82.5 411.999339,55 438.007591,55 C464.015843,55 464.999339,82.4959226 464.999339,88.5 C464.999339,112.5 452.000661,122.5 438,122.5 C423.999339,122.5 411,112.5 411,88.5 Z M421.5,89 C421.5,72 428.015033,64 438.007516,64 C448,64 454.5,72 454.5,89 C454.5,106.5 448,114.513681 438.002736,114.506841 C428.005473,114.5 421.5,106.5 421.5,89 Z" id="Combined-Shape" fill="#6DCBDE"></path>
            <polygon id="Combined-Shape" fill="#6DCBDE" points="486 76.4877858 486 35 475 35 475 123 486 123 486 76.51389 519.5 123 533.5 123 498.5 76.5 533.5 35 520 35"></polygon>
            <path d="M548.5,47 C552.642136,47 556,43.6421356 556,39.5 C556,35.3578644 552.642136,32 548.5,32 C544.357864,32 541,35.3578644 541,39.5 C541,43.6421356 544.357864,47 548.5,47 Z M543,59.5 L553.5,58 L553.5,122.5 L542.999997,122.5 L543,59.5 Z" id="Combined-Shape" fill="#6DCBDE"></path>
            <path d="M573.514693,65 C573.514693,65 573.524703,111 573.514693,111.524187 C573.504683,112.048375 573.514693,123 588.514693,123 C597.769504,123 599.014693,120 599.014693,120 C598.514693,118.5 597.014693,114.5 597.014693,114.5 C597.014693,114.5 595.514693,115.5 591.514693,115.5 C587.514693,115.5 583.514693,114.5 583.514693,107.5 L583.514693,65 L596.514693,65 L598.014693,57 L583.514693,57 L583.514693,40 L573.514693,41.5 L573.514693,57 L566,57 L566,65 L573.514693,65 Z" id="Path-10" fill="#6DCBDE"></path>
        </g>
    </g>
</svg>